<svg width="16" height="16" viewBox="0 0 16 16" fill="none" xmlns="http://www.w3.org/2000/svg">
<path d="M6.70015 13C6.70015 13 5.60015 14.6 4.20015 14.3C2.80015 14.1 2.40015 13.4 2.40015 13.4C2.40015 13.4 3.10015 13.3 4.00015 12.5C4.50015 12.1 5.30015 12 6.10015 12.1L6.70015 13Z" fill="#54A63A"/>
<path d="M6.80011 12.9C6.40011 13.8 5.60011 14.5 4.60011 14.6C3.60011 14.6 2.70011 14.3 2.20011 13.4C2.10011 13.3 2.20011 13.1 2.30011 13.1C3.00011 13 3.50011 12.6 4.00011 12.1C4.60011 11.6 5.40011 11.6 6.10011 11.5C6.30011 11.5 6.40011 11.6 6.50011 11.7C6.70011 12.2 6.80011 12.6 6.80011 12.9ZM6.50011 12.9C6.20011 12.6 5.90011 12.5 5.70011 12.3L6.10011 12.5C5.50011 12.3 4.80011 12.2 4.30011 12.5C3.70011 12.9 3.10011 13.3 2.40011 13.5L2.50011 13.2C3.00011 13.6 4.00011 13.9 4.60011 13.9C5.30011 13.8 5.90011 13.3 6.50011 12.9C6.50011 12.8 6.40011 12.9 6.50011 12.9C6.50011 12.8 6.50011 12.8 6.50011 12.9Z" fill="#608B00"/>
<path d="M8.3999 11.9999C8.3999 11.9999 9.5999 14.2999 11.4999 14.1999C13.3999 14.0999 14.0999 13.2999 14.0999 13.2999C14.0999 13.2999 13.1999 13.0999 11.9999 11.7999C11.3999 11.1999 10.2999 10.8999 9.2999 10.8999L8.3999 11.9999Z" fill="#54A63A"/>
<path d="M8.89997 12.0999C8.89997 11.9999 8.89997 11.8999 8.89997 11.7999C8.89997 11.8999 8.99997 11.9999 9.09997 12.0999C9.49997 12.8999 10.2 13.5999 11.1 13.7999C12 13.9999 13.3 13.6999 13.9 13.0999L14.1 13.6999C13.2 13.1999 12.6 12.4999 11.9 11.8999C11.2 11.3999 10.3 11.2999 9.39997 11.4999C9.29997 11.4999 9.79997 11.2999 9.79997 11.2999C9.39997 11.5999 9.19997 11.7999 8.89997 12.0999ZM7.89997 11.9999C8.19997 11.4999 8.59997 10.9999 8.99997 10.5999C9.09997 10.4999 9.19997 10.3999 9.39997 10.4999C10.3 10.6999 11.3 10.8999 12.1 11.5999C12.7 12.1999 13.4 12.8999 14.3 12.9999C14.6 12.9999 14.7 13.3999 14.5 13.5999C13.5 14.4999 12.3 14.6999 10.9 14.5999C9.89997 14.3999 9.19997 13.7999 8.59997 13.0999C8.29997 12.6999 7.79997 12.2999 7.89997 11.9999Z" fill="#608B00"/>
<path d="M12.4001 7.30004C12.7001 5.90004 11.8001 4.30004 11.3001 4.10004C10.8001 3.90004 10.6001 4.00004 10.1001 4.10004C10.1001 4.10004 10.0001 3.30004 7.90009 3.00004C5.80009 2.70004 5.00009 4.80004 5.00009 4.80004C4.60009 4.80004 4.30009 4.90004 4.10009 5.10004C3.60009 5.70004 3.30009 6.50004 3.50009 7.20004C3.50009 7.30004 3.60009 7.50004 3.70009 7.70004C3.40009 8.00004 2.50009 8.90004 2.70009 9.80004C2.90009 10.9 3.70009 11.7 4.70009 11.7C4.80009 12 4.80009 12.3 4.90009 12.5C5.20009 13.1 7.30009 13.9 7.70009 13.9C8.30009 13.9 9.80009 13.4 10.6001 13C10.9001 12.8 11.1001 12.4 11.3001 12C13.1001 11.8 13.3001 10.5 13.4001 9.70004C13.4001 8.90004 12.8001 7.80004 12.4001 7.30004Z" fill="url(#paint0_radial_244_624)"/>
<path d="M6.70007 9.80015C6.70007 9.80015 6.40007 8.70015 6.30007 8.20015C6.20007 7.70015 7.30007 6.60015 8.00007 6.80015C8.60007 7.00015 9.40007 7.40015 9.10007 8.20015C8.90007 9.00015 8.90007 9.90015 8.90007 9.90015C8.10007 10.1001 7.40007 10.1001 6.70007 9.80015Z" fill="url(#paint1_radial_244_624)"/>
<path d="M12.8 7.29993C13 6.39993 13 5.49993 12.5 4.79993C12.2 4.09993 11.5 3.49993 10.7 3.49993C10.4 3.49993 10.2 3.59993 9.90002 3.59993C9.80002 3.29993 9.30002 2.99993 9.00002 2.89993C7.50002 2.09993 5.50002 2.59993 5.00002 4.19993C3.60002 4.19993 2.70002 5.69993 2.90002 6.99993C2.90002 7.29993 3.00002 7.59993 3.10002 7.79993C2.80002 7.99993 2.60002 8.19993 2.40002 8.49993C1.30002 9.99993 2.90002 12.4999 4.70002 11.9999V11.4999C4.30002 11.2999 4.10002 11.0999 3.90002 10.7999C3.30002 9.99993 3.20002 9.39993 3.50002 8.59993C3.80002 9.09993 4.30002 9.59993 5.00002 9.99993L5.20002 9.69993C4.40002 8.79993 3.70002 7.19993 4.20002 6.09993C4.50002 5.49993 4.60002 5.39993 5.40002 5.39993C6.00002 5.39993 6.60002 5.39993 7.20002 5.69993C7.00002 5.99993 7.10002 6.49993 7.20002 6.89993L7.50002 6.79993C7.50002 6.29993 7.60002 5.69993 7.90002 5.39993C8.20002 4.99993 8.80002 4.99993 9.20002 4.89993C10 4.79993 10.5 4.39993 11 4.59993C11.3 4.69993 11.4 4.99993 11.6 5.19993C12.9 7.39993 11.1 9.29993 8.80002 9.39993V9.49993C9.40002 9.59993 10 9.59993 10.6 9.39993C11.4 9.19993 12 8.69993 12.4 8.09993C12.4 8.19993 12.5 8.29993 12.5 8.39993C12.9 9.79993 12.4 10.8999 11.2 11.5999V11.9999C11.8 12.1999 12.5 12.0999 13.1 11.5999C14.6 10.4999 14 8.49993 12.8 7.29993ZM9.00002 3.99993C8.10002 4.09993 7.50002 4.59993 7.20002 5.29993C6.80002 4.79993 6.30002 4.49993 5.70002 4.39993C6.20002 3.99993 6.70002 3.59993 7.40002 3.59993C8.00002 3.59993 8.70002 3.69993 9.40002 3.89993C9.20002 3.89993 9.10002 3.89993 9.00002 3.99993Z" fill="#E83742"/>
<path d="M6.60002 9.8999C6.40002 9.5999 6.30002 9.2999 6.20002 8.8999C6.10002 8.5999 6.00002 8.2999 6.10002 7.7999C6.20002 7.3999 6.50002 7.0999 6.80002 6.7999C7.00002 6.5999 7.40002 6.3999 7.90002 6.3999C8.30002 6.3999 8.60002 6.5999 9.00002 6.7999C9.30002 6.9999 9.60002 7.4999 9.50002 7.9999C9.50002 8.0999 9.50001 8.1999 9.40001 8.2999V8.4999L9.30002 8.9999C9.20002 9.2999 9.20002 9.5999 9.10002 9.8999H8.70002C8.70002 9.5999 8.70002 9.1999 8.70002 8.8999C8.70002 8.6999 8.70002 8.5999 8.80002 8.3999L8.90001 8.0999C8.90001 7.9999 8.90001 7.9999 8.90001 7.8999C8.90001 7.6999 8.80002 7.5999 8.60002 7.3999C8.40002 7.2999 8.00002 7.1999 7.80002 7.1999C7.50002 7.1999 6.90002 7.5999 6.80002 7.9999C6.70002 8.0999 6.80002 8.4999 6.80002 8.7999L6.90002 9.7999L6.60002 9.8999Z" fill="url(#paint2_linear_244_624)"/>
<path d="M8.49995 9.90003C10.4999 9.40003 12.1999 9.90003 11.6999 12.4C11.3999 13.9 9.29995 14.3 7.89995 14.6C7.59995 14.6 7.29995 14.6 7.09995 14.5C6.09995 14.2 4.79995 13.7 4.39995 12.7C3.79995 11.2 4.39995 8.90003 6.39995 9.60003C6.99995 9.90003 7.69995 10 8.49995 9.90003ZM8.49995 10.2C7.69995 10.3 6.89995 10.3 6.19995 10C5.49995 9.80003 4.99995 10.3 4.99995 10.9C4.99995 11.4 5.09995 12 5.39995 12.4C5.89995 12.8 6.69995 13.1 7.39995 13.3H7.59995C7.69995 13.3 8.09995 13.2 8.19995 13.2C8.99995 12.9 10.2999 12.9 10.6999 12.1C11.3999 10.1 9.89995 10.1 8.49995 10.2Z" fill="#E83742"/>
<path d="M11 3.2001C11.1656 3.2001 11.3 3.06578 11.3 2.9001C11.3 2.73441 11.1656 2.6001 11 2.6001C10.8343 2.6001 10.7 2.73441 10.7 2.9001C10.7 3.06578 10.8343 3.2001 11 3.2001Z" fill="url(#paint3_radial_244_624)"/>
<path d="M2.10005 7.7001C2.26573 7.7001 2.40005 7.56578 2.40005 7.4001C2.40005 7.23441 2.26573 7.1001 2.10005 7.1001C1.93436 7.1001 1.80005 7.23441 1.80005 7.4001C1.80005 7.56578 1.93436 7.7001 2.10005 7.7001Z" fill="url(#paint4_radial_244_624)"/>
<path d="M10.4999 2.2C10.5551 2.2 10.5999 2.15523 10.5999 2.1C10.5999 2.04477 10.5551 2 10.4999 2C10.4447 2 10.3999 2.04477 10.3999 2.1C10.3999 2.15523 10.4447 2.2 10.4999 2.2Z" fill="url(#paint5_radial_244_624)"/>
<defs>
<radialGradient id="paint0_radial_244_624" cx="0" cy="0" r="1" gradientUnits="userSpaceOnUse" gradientTransform="translate(7.94609 8.21024) scale(4.2447)">
<stop stop-color="#FBBD09"/>
<stop offset="0.1084" stop-color="#FBB12A"/>
<stop offset="0.295" stop-color="#FB9D5E"/>
<stop offset="0.2975" stop-color="#FB9D5E"/>
<stop offset="0.461" stop-color="#FB8356"/>
<stop offset="0.6292" stop-color="#FB7151"/>
<stop offset="0.8052" stop-color="#FB664E"/>
<stop offset="1" stop-color="#FB624D"/>
</radialGradient>
<radialGradient id="paint1_radial_244_624" cx="0" cy="0" r="1" gradientUnits="userSpaceOnUse" gradientTransform="translate(7.41567 7.62405) scale(2.2048)">
<stop stop-color="#FB9B3C"/>
<stop offset="0.5608" stop-color="#FBC43C"/>
<stop offset="1" stop-color="#FB9B3C"/>
</radialGradient>
<linearGradient id="paint2_linear_244_624" x1="7.79482" y1="9.9481" x2="7.79482" y2="6.3786" gradientUnits="userSpaceOnUse">
<stop stop-color="#FB9B3C"/>
<stop offset="0.1015" stop-color="#F5833D"/>
<stop offset="0.2676" stop-color="#EC623E"/>
<stop offset="0.4386" stop-color="#E6483F"/>
<stop offset="0.6142" stop-color="#E1363F"/>
<stop offset="0.7974" stop-color="#DE2B40"/>
<stop offset="1" stop-color="#DD2740"/>
</linearGradient>
<radialGradient id="paint3_radial_244_624" cx="0" cy="0" r="1" gradientUnits="userSpaceOnUse" gradientTransform="translate(10.7516 3.4178) scale(1.6207)">
<stop stop-color="#FBBD09"/>
<stop offset="0.1084" stop-color="#FBB12A"/>
<stop offset="0.295" stop-color="#FB9D5E"/>
<stop offset="0.2975" stop-color="#FB9D5E"/>
<stop offset="0.461" stop-color="#FB8356"/>
<stop offset="0.6292" stop-color="#FB7151"/>
<stop offset="0.8052" stop-color="#FB664E"/>
<stop offset="1" stop-color="#FB624D"/>
</radialGradient>
<radialGradient id="paint4_radial_244_624" cx="0" cy="0" r="1" gradientUnits="userSpaceOnUse" gradientTransform="translate(3.40025 9.7243) scale(9.3689 9.3689)">
<stop stop-color="#FBBD09"/>
<stop offset="0.1084" stop-color="#FBB12A"/>
<stop offset="0.295" stop-color="#FB9D5E"/>
<stop offset="0.2975" stop-color="#FB9D5E"/>
<stop offset="0.461" stop-color="#FB8356"/>
<stop offset="0.6292" stop-color="#FB7151"/>
<stop offset="0.8052" stop-color="#FB664E"/>
<stop offset="1" stop-color="#FB624D"/>
</radialGradient>
<radialGradient id="paint5_radial_244_624" cx="0" cy="0" r="1" gradientUnits="userSpaceOnUse" gradientTransform="translate(10.6291 2.4955) scale(0.413302 0.4133)">
<stop stop-color="#FBBD09"/>
<stop offset="0.1084" stop-color="#FBB12A"/>
<stop offset="0.295" stop-color="#FB9D5E"/>
<stop offset="0.2975" stop-color="#FB9D5E"/>
<stop offset="0.461" stop-color="#FB8356"/>
<stop offset="0.6292" stop-color="#FB7151"/>
<stop offset="0.8052" stop-color="#FB664E"/>
<stop offset="1" stop-color="#FB624D"/>
</radialGradient>
</defs>
</svg>
